<svg width="27" height="27" viewBox="0 0 27 27" fill="none" xmlns="http://www.w3.org/2000/svg">
<path d="M8.61282 21.207C7.05607 21.207 5.79413 22.5039 5.79413 24.1035C5.79413 25.7033 7.05613 27.0001 8.61282 27.0001C10.1696 27.0001 11.4315 25.7032 11.4315 24.1035C11.4316 22.5039 10.1696 21.207 8.61282 21.207ZM8.61282 25.7128C7.74797 25.7128 7.0469 24.9923 7.0469 24.1036C7.0469 23.2149 7.74797 22.4944 8.61282 22.4944C9.47768 22.4944 10.1788 23.2149 10.1788 24.1036C10.1788 24.9923 9.47768 25.7128 8.61282 25.7128Z" fill="white"/>
<path d="M20.5143 21.207C18.9575 21.207 17.6956 22.5039 17.6956 24.1035C17.6956 25.7033 18.9576 27.0001 20.5143 27.0001C22.071 27.0001 23.3331 25.7032 23.3331 24.1035C23.3331 22.5039 22.0711 21.207 20.5143 21.207ZM20.5143 25.7128C19.6494 25.7128 18.9483 24.9923 18.9483 24.1036C18.9483 23.2149 19.6494 22.4944 20.5143 22.4944C21.3792 22.4944 22.0803 23.2149 22.0803 24.1036C22.0803 24.9923 21.3792 25.7128 20.5143 25.7128Z" fill="white"/>
<path d="M26.8723 4.31225C26.7418 4.16584 26.5633 4.07418 26.3712 4.05478L5.98207 3.76516L5.41832 1.99521C5.02117 0.812016 3.94283 0.0132431 2.72481 0H0.626395C0.280436 0 0 0.288144 0 0.643613C0 0.999082 0.280436 1.28723 0.626395 1.28723H2.72481C3.40587 1.30269 4.00559 1.75203 4.22818 2.41356L8.20577 14.7387L7.89261 15.4789C7.54329 16.4044 7.6482 17.4461 8.17448 18.2786C8.69573 19.0962 9.57264 19.6008 10.5235 19.6302H22.7068C23.0528 19.6302 23.3332 19.342 23.3332 18.9866C23.3332 18.6311 23.0528 18.3429 22.7068 18.3429H10.5234C9.98646 18.3291 9.49219 18.0389 9.20798 17.5706C8.92695 17.108 8.86922 16.5381 9.0514 16.0259L9.30198 15.4467L22.4876 14.0307C23.9359 13.8668 25.1273 12.7844 25.4629 11.3275L26.9663 4.85922C27.0341 4.67296 26.9981 4.46347 26.8723 4.31225ZM24.2415 11.0379C24.0381 11.9758 23.2632 12.6676 22.331 12.7435L9.30198 14.1273L6.38924 5.05238L25.5882 5.34201L24.2415 11.0379Z" fill="white"/>
</svg>