<svg width="33" height="33" viewBox="0 0 33 33" fill="none" xmlns="http://www.w3.org/2000/svg">
<rect width="33" height="33" rx="6" fill="#505050" fill-opacity="0.6"/>
<g clip-path="url(#clip0_3863_33619)">
<path d="M24.8531 24.1455C24.6583 23.9505 24.3409 23.952 24.1461 24.1471C23.9513 24.3422 23.9513 24.6585 24.1461 24.8537C24.2435 24.9512 24.3712 25 24.4988 25C24.6265 25 24.7541 24.9512 24.8515 24.8537L24.8547 24.8505C25.0495 24.6554 25.0479 24.3406 24.8531 24.1455Z" fill="white"/>
<path d="M27.9771 15.7731C27.8013 12.9795 26.6132 10.3497 24.6317 8.36824C22.4597 6.19622 19.5718 5 16.5 5C13.572 5 10.8112 6.08675 8.67802 8.0696L8.18963 7.6224C8.05824 7.50206 7.86831 7.47075 7.70529 7.54258C7.54226 7.61436 7.43706 7.77563 7.43706 7.9537V11.3116C7.43706 11.5596 7.63822 11.7608 7.88628 11.7608H11.2441C11.4234 11.7608 11.5855 11.6542 11.6566 11.4896C11.7276 11.3251 11.694 11.134 11.5711 11.0035L10.7803 10.1641C14.1266 7.13985 19.3109 7.23976 22.5356 10.4645C25.8636 13.7925 25.8636 19.2076 22.5356 22.5356C20.9234 24.1477 18.7799 25.0356 16.5 25.0356C14.2201 25.0356 12.0766 24.1477 10.4645 22.5356C8.85228 20.9234 7.96439 18.78 7.96439 16.5C7.96439 16.2519 7.76323 16.0508 7.51518 16.0508H5.44922C5.20116 16.0508 5 16.2519 5 16.5C5 19.5718 6.19622 22.4597 8.36824 24.6318C10.3364 26.5999 12.948 27.7868 15.722 27.9738C15.9815 27.9913 16.2405 28 16.4992 28C18.9782 28 21.397 27.2016 23.3826 25.7148C23.5812 25.566 23.6216 25.2845 23.473 25.0859C23.3242 24.8874 23.0427 24.8469 22.8441 24.9956C18.6579 28.1302 12.7077 27.7006 9.00353 23.9964C7.10733 22.1003 6.01788 19.6125 5.90769 16.9492H7.07638C7.18585 19.3005 8.15352 21.4953 9.82915 23.1709C13.5075 26.8492 19.4925 26.8492 23.1709 23.1709C26.8491 19.4925 26.8491 13.5075 23.1709 9.82915C19.4925 6.15081 13.5075 6.15081 9.82915 9.82915C9.65741 10.0009 9.65328 10.2781 9.81985 10.4549L10.2037 10.8623H8.33549V8.97415L8.38257 9.01723C8.55983 9.17958 8.8335 9.1736 9.00357 9.00357C11.0059 7.00118 13.6682 5.89844 16.5 5.89844C19.3318 5.89844 21.9941 7.00118 23.9964 9.00357C27.7357 12.7429 28.1396 18.727 24.9358 22.9232C24.7853 23.1204 24.8231 23.4023 25.0203 23.5529C25.2174 23.7035 25.4994 23.6656 25.65 23.4684C27.325 21.2745 28.1515 18.5416 27.9771 15.7731Z" fill="white"/>
<path d="M12.6167 18.8679H11.4567C11.5072 18.7995 11.5584 18.7288 11.6095 18.6561C12.3348 17.6249 12.6873 16.751 12.6873 15.9842C12.6873 14.7974 12.1473 14 11.3436 14C10.6028 14 10 14.8902 10 15.9842C10 16.2968 10.1716 16.5503 10.3833 16.5503C10.5949 16.5503 10.7666 16.2968 10.7666 15.9842C10.7666 15.5144 11.0255 15.1321 11.3436 15.1321C11.9207 15.1321 11.9207 15.7735 11.9207 15.9842C11.9207 16.7722 10.892 18.2059 10.1616 18.9723C10.0255 19.1149 9.9675 19.3711 10.0181 19.6058C10.0688 19.8405 10.2165 20 10.3833 20H12.6167C12.8284 20 13 19.7465 13 19.434C13 19.1214 12.8284 18.8679 12.6167 18.8679Z" fill="white"/>
<path d="M15.6145 17.085H15.3513V16.9246C15.3513 16.612 15.1787 16.3586 14.9658 16.3586C14.7529 16.3586 14.5803 16.612 14.5803 16.9246V17.085H14.0483L14.9158 14.846C15.021 14.5742 14.9564 14.2287 14.7713 14.0741C14.5863 13.9196 14.3508 14.0145 14.2455 14.2862L13.0504 17.3711C12.9825 17.5463 12.9833 17.7613 13.0523 17.9355C13.1213 18.1098 13.2482 18.217 13.3856 18.217H14.5803V19.434C14.5803 19.7465 14.7529 20 14.9658 20C15.1787 20 15.3513 19.7465 15.3513 19.434V18.217H15.6145C15.8274 18.217 16 17.9635 16 17.651C16 17.3384 15.8274 17.085 15.6145 17.085Z" fill="white"/>
<path d="M18.7585 14.0379C18.5642 13.9257 18.3463 14.0711 18.2716 14.3629L17.0252 19.2306C16.9505 19.5223 17.0474 19.8498 17.2415 19.9621C17.2861 19.9878 17.3318 20 17.3767 20C17.5281 20 17.6708 19.862 17.7284 19.6371L18.9748 14.7694C19.0495 14.4777 18.9526 14.1502 18.7585 14.0379Z" fill="white"/>
<path d="M22.9135 14.243C22.823 14.0908 22.6746 14 22.5161 14H20.4839C20.2167 14 20 14.2535 20 14.566C20 14.8786 20.2167 15.132 20.4839 15.132H21.8198L20.5143 19.2364C20.4211 19.5294 20.5486 19.8553 20.799 19.9643C20.8546 19.9885 20.9116 20 20.9677 20C21.164 20 21.3487 19.8591 21.4212 19.6312L22.9696 14.7634C23.0249 14.5897 23.0039 14.3953 22.9135 14.243Z" fill="white"/>
</g>
<defs>
<clipPath id="clip0_3863_33619">
<rect width="23" height="23" fill="white" transform="translate(5 5)"/>
</clipPath>
</defs>
</svg>