<svg width="33" height="33" viewBox="0 0 33 33" fill="none" xmlns="http://www.w3.org/2000/svg">
<rect width="33" height="33" rx="6" fill="#505050" fill-opacity="0.6"/>
<path d="M24.1298 21.1325L23.1441 20.5985C22.8436 20.436 22.4999 20.3502 22.1497 20.35H20.6663C20.3626 20.3495 20.0602 20.3849 19.7666 20.4549L15.2969 21.54C14.8082 21.662 14.4157 21.9911 14.2445 22.4227L10.3131 20.4992C9.99429 20.3351 9.62107 20.2794 9.26088 20.342C9.12501 20.3637 8.9933 20.4028 8.86952 20.4582C8.59002 20.5792 8.35815 20.7747 8.2047 21.0182C8.07053 21.2303 8.00004 21.4704 8.00004 21.7146C7.99589 22.2133 8.28804 22.6754 8.76501 22.9253L15.8111 26.7378C16.1173 26.9093 16.4699 27 16.8299 27H22.2829C22.5265 27.0002 22.7679 26.9585 22.9942 26.8775L24.1298 26.4719V27H28V20H24.1298V21.1325ZM22.7098 26.2265C22.5743 26.2749 22.4298 26.2998 22.2841 26.3H16.8299C16.6118 26.2998 16.3981 26.2443 16.2133 26.1397L9.15751 22.3227C8.91771 22.1974 8.77087 21.9653 8.77276 21.715C8.77333 21.5923 8.80904 21.4716 8.87651 21.365C8.95361 21.2441 9.06964 21.1472 9.20892 21.0874C9.27033 21.0604 9.33534 21.0413 9.40243 21.0307C9.45137 21.0225 9.50107 21.0182 9.55077 21.0182C9.68381 21.0179 9.81458 21.0493 9.93004 21.1091L14.1931 23.1924C14.198 23.2137 14.198 23.2348 14.2043 23.2561C14.3876 23.8671 15.0004 24.2914 15.7006 24.2921C15.916 24.2743 16.1294 24.2398 16.3384 24.1892L20.3594 23.2161L20.1598 22.5399L16.1518 23.5087C15.9753 23.5455 15.7476 23.5875 15.7006 23.5911C15.351 23.5916 15.0445 23.3804 14.9524 23.0755C14.94 23.0331 14.9326 22.9897 14.9299 22.9459C14.9299 22.9459 14.9269 22.8612 14.9299 22.8314C14.9594 22.5387 15.1862 22.2929 15.4993 22.2142L19.9671 21.1332C20.1952 21.078 20.4302 21.05 20.6663 21.05H22.1497C22.3599 21.05 22.566 21.1016 22.7461 21.1992L24.1298 21.9484V25.7189L22.7098 26.2265ZM24.9038 20.7H27.226V26.3H24.9038V20.7Z" fill="white"/>
<path d="M20.8103 7.82354L18.754 5.93045C18.1084 5.33262 17.23 4.9976 16.3145 5.00001H11.4951C11.1977 5.00036 10.9044 5.06429 10.6381 5.18631L9.77894 5.58199C9.60674 5.66178 9.41545 5.69986 9.22284 5.6928L8.83333 5.68022V5.00001H5V12.7647H8.83333V11.7059H9.48507L9.71698 11.847C10.3659 12.2437 11.1215 12.4678 11.9 12.494V17H28V7.82354H20.8103ZM8.06667 12.0588H5.76667V5.70589H8.06667V12.0588ZM10.1413 11.2597L9.71492 11H8.83333V6.38644L9.19477 6.39833C9.51577 6.40885 9.83434 6.34526 10.1217 6.21342L10.98 5.81774C11.1399 5.74415 11.3164 5.70589 11.4951 5.70589H16.3145C17.0265 5.704 17.7099 5.96457 18.2119 6.42935L19.7261 7.82354H16.5629L15.6324 6.96704L15.0906 7.46595L17.7984 9.95928C18.0992 10.235 18.1002 10.6831 17.8007 10.9602C17.501 11.2371 17.0144 11.238 16.7136 10.9623L14.4519 8.87995L14.1835 9.09175C13.4425 9.67114 12.3593 9.68596 11.5998 9.1269L11.3776 8.96112L10.8945 9.50949L11.1191 9.67717C11.354 9.85002 11.6177 9.98685 11.9 10.0823V11.7877C11.2726 11.7621 10.6645 11.5796 10.1413 11.2597ZM15.5943 10.9293L16.1726 11.462C16.7731 12.0066 17.737 12.0075 18.3384 11.4638C17.7758 12.266 17.9978 13.3336 18.8425 13.8876C19.6872 14.4417 20.8557 14.2861 21.4953 13.5345C22.1349 12.7828 22.0194 11.7009 21.2329 11.0784C20.4466 10.4559 19.2674 10.513 18.5563 11.2078C18.8182 10.8292 18.8649 10.3574 18.6819 9.94118H23.8152C23.9801 10.8292 24.7355 11.5248 25.7 11.6766V13.1469C24.7355 13.2988 23.9801 13.9943 23.8152 14.8824H16.0848C15.9199 13.9943 15.1645 13.2988 14.2 13.1469V11.6766C14.7479 11.5916 15.2433 11.3261 15.5943 10.9293ZM18.8 12.4118C18.8 11.827 19.3149 11.3529 19.95 11.3529C20.5851 11.3529 21.1 11.827 21.1 12.4118C21.1 12.9965 20.5851 13.4706 19.95 13.4706C19.3149 13.4706 18.8 12.9965 18.8 12.4118ZM27.2333 16.2941H12.6667V10.2302C13.2744 10.2722 13.8803 10.1295 14.3917 9.82434L15.0457 10.4265C14.758 10.7863 14.302 10.9991 13.8167 11H13.4333V13.8235H13.8167C14.6634 13.8235 15.35 14.4557 15.35 15.2353V15.5882H24.55V15.2353C24.55 14.4557 25.2366 13.8235 26.0833 13.8235H26.4667V11H26.0833C25.2366 11 24.55 10.3679 24.55 9.58824V9.2353H18.0962L17.3296 8.52942H27.2333V16.2941Z" fill="white"/>
</svg>