<svg width="33" height="33" viewBox="0 0 33 33" fill="none" xmlns="http://www.w3.org/2000/svg">
<rect width="33" height="33" rx="6" fill="#505050" fill-opacity="0.6"/>
<path d="M26.39 18.4224L25.7943 15.9841C25.9572 15.9487 26.0794 15.8009 26.0794 15.6237V15.2306C26.0794 14.3771 25.4008 13.6827 24.5668 13.6827H21.8539V12.8718C21.8539 12.4518 21.5201 12.1101 21.1096 12.1101H16.0652L19.1307 10.8552C19.3153 10.7796 19.4051 10.5651 19.3313 10.3761C19.2574 10.1871 19.048 10.0952 18.8631 10.1708L16.3532 11.1983C17.118 10.696 17.8747 10.1433 18.1628 9.75674C18.7237 9.00418 18.5816 7.92498 17.8463 7.35099C17.111 6.77696 16.0565 6.92238 15.4956 7.67493C15.0858 8.22487 14.5452 9.77012 14.1952 10.859C13.8453 9.77021 13.3046 8.22487 12.8948 7.67493C12.334 6.92238 11.2795 6.77705 10.5441 7.35099C9.80881 7.92494 9.66681 9.00414 10.2276 9.75674C10.5157 10.1433 11.2724 10.696 12.0373 11.1983L9.52728 10.1708C9.34252 10.0951 9.133 10.1871 9.05915 10.3761C8.98525 10.5651 9.0751 10.7796 9.25977 10.8552L12.3252 12.1101H7.28078C6.87037 12.1101 6.53651 12.4518 6.53651 12.8718V18.7129C6.53651 18.9164 6.69774 19.0815 6.89665 19.0815C7.09552 19.0815 7.25679 18.9165 7.25679 18.7129V12.8718C7.25679 12.8583 7.26753 12.8473 7.28078 12.8473H21.1096C21.1229 12.8473 21.1336 12.8583 21.1336 12.8718V19.5552C21.1336 19.7587 21.2948 19.9238 21.4937 19.9238C21.6926 19.9238 21.8539 19.7588 21.8539 19.5552V19.1374H26.102L26.1031 19.1375L26.1042 19.1374C26.627 19.1378 27.0708 19.489 27.2232 19.9728H26.1034C25.9045 19.9728 25.7432 20.1378 25.7432 20.3414V21.1277C25.7432 21.7644 26.2494 22.2825 26.8716 22.2825H27.2798V23.9041H26.3381C26.0288 22.9901 25.1797 22.3316 24.1827 22.3316C23.1856 22.3316 22.3365 22.99 22.0272 23.9041H21.8538V21.1276C21.8538 20.9241 21.6926 20.759 21.4937 20.759C21.2948 20.759 21.1335 20.924 21.1335 21.1276V23.9041H13.6617C13.3524 22.99 12.5033 22.3315 11.5063 22.3315C10.5092 22.3315 9.66011 22.99 9.35083 23.9041H7.28078C7.26753 23.9041 7.25679 23.8931 7.25679 23.8795V23.0687H8.81733C9.0162 23.0687 9.17747 22.9037 9.17747 22.7001C9.17747 22.4965 9.01625 22.3315 8.81733 22.3315H5.36014C5.16127 22.3315 5 22.4965 5 22.7001C5 22.9037 5.16122 23.0687 5.36014 23.0687H6.53656V23.8795C6.53656 24.2996 6.87042 24.6412 7.28082 24.6412H9.22612C9.22603 24.6494 9.22549 24.6576 9.22549 24.6658C9.22549 25.9528 10.2487 27 11.5063 27C12.7639 27 13.7871 25.9528 13.7871 24.6658C13.7871 24.6575 13.7865 24.6494 13.7864 24.6412H21.9025C21.9024 24.6494 21.9018 24.6576 21.9018 24.6658C21.9018 25.9528 22.925 27 24.1826 27C25.4402 27 26.4634 25.9528 26.4634 24.6658C26.4634 24.6575 26.4629 24.6494 26.4628 24.6412H27.6399C27.8387 24.6412 28 24.4762 28 24.2727V20.3414C28 19.3707 27.3003 18.5642 26.39 18.4224ZM12.767 10.7962C11.3464 9.89278 10.9251 9.47712 10.8003 9.30968C10.4803 8.88033 10.5614 8.2646 10.981 7.93712C11.1539 7.80214 11.3578 7.7369 11.5601 7.7369C11.8486 7.7369 12.1341 7.86958 12.3221 8.12198C12.6705 8.58945 13.2161 10.1628 13.5763 11.2966C13.3332 11.1501 13.0538 10.9787 12.767 10.7962ZM14.8142 11.2966C15.1744 10.1628 15.72 8.5895 16.0683 8.12194C16.3883 7.69258 16.9899 7.60969 17.4095 7.93712C17.829 8.2646 17.91 8.88033 17.5901 9.30968C17.4654 9.47708 17.044 9.89278 15.6235 10.7962C15.3368 10.9786 15.0574 11.1501 14.8142 11.2966ZM21.8539 14.4197H24.5668C25.0037 14.4197 25.3591 14.7835 25.3591 15.2306V15.2551H21.8539V14.4197ZM21.8539 18.4002V15.9923H25.0539L25.6421 18.4002H21.8539ZM11.5063 26.2629C10.6458 26.2629 9.94573 25.5464 9.94573 24.6658C9.94573 23.7852 10.6458 23.0687 11.5063 23.0687C12.3668 23.0687 13.0668 23.7852 13.0668 24.6658C13.0668 25.5464 12.3668 26.2629 11.5063 26.2629ZM24.1827 26.2629C23.3222 26.2629 22.6222 25.5464 22.6222 24.6658C22.6222 23.7852 23.3222 23.0687 24.1827 23.0687C25.0432 23.0687 25.7433 23.7852 25.7433 24.6658C25.7433 25.5464 25.0432 26.2629 24.1827 26.2629ZM27.2798 21.5453H26.8717C26.6466 21.5453 26.4635 21.3579 26.4635 21.1276V20.7098H27.2798L27.2798 21.5453Z" fill="white"/>
<path d="M19.6457 22H14.3543C14.1587 22 14 22.2238 14 22.5C14 22.7762 14.1586 23 14.3543 23H19.6457C19.8413 23 20 22.7762 20 22.5C20 22.2238 19.8414 22 19.6457 22Z" fill="white"/>
<path d="M10.5946 20H5.40542C5.18155 20 5 20.2238 5 20.5C5 20.7762 5.18149 21 5.40542 21H10.5946C10.8185 21 11 20.7762 11 20.5C11 20.2238 10.8185 20 10.5946 20Z" fill="white"/>
<path d="M9.68085 15H8.31915C8.14292 15 8 15.17 8 15.3798V18.6202C8 18.8299 8.14288 19 8.31915 19C8.49543 19 8.63831 18.83 8.63831 18.6202V17.3797H9.34043C9.51667 17.3797 9.65959 17.2097 9.65959 17C9.65959 16.7902 9.51671 16.6202 9.34043 16.6202H8.63831V15.7595H9.68085C9.85708 15.7595 10 15.5895 10 15.3798C9.99996 15.1701 9.85708 15 9.68085 15Z" fill="white"/>
<path d="M13.3194 17.5578C13.7288 17.3089 14 16.8796 14 16.3924C14 15.6246 13.3271 15 12.5 15H11.4091C11.1832 15 11 15.17 11 15.3798V18.6202C11 18.8299 11.1831 19 11.4091 19C11.6351 19 11.8182 18.83 11.8182 18.6202V17.7848H12.4992L13.2505 18.8308C13.3293 18.9406 13.459 19 13.5912 19C13.6692 19 13.748 18.9793 13.8177 18.9361C14.0058 18.8199 14.0565 18.584 13.9312 18.4096L13.3194 17.5578ZM12.5 17.0253H11.8182V15.7595H12.5C12.876 15.7595 13.1818 16.0434 13.1818 16.3924C13.1818 16.7414 12.876 17.0253 12.5 17.0253Z" fill="white"/>
<path d="M16.6808 18.2405H15.6383V17.3785C15.6454 17.3791 15.6524 17.3798 15.6596 17.3798H16.3404C16.5166 17.3798 16.6595 17.2098 16.6595 17C16.6595 16.7903 16.5167 16.6203 16.3404 16.6203H15.6596C15.6524 16.6203 15.6454 16.621 15.6383 16.6215V15.7595H16.6808C16.8571 15.7595 17 15.5895 17 15.3798C17 15.1701 16.8571 15 16.6808 15H15.3192C15.1429 15 15 15.17 15 15.3798V18.6202C15 18.8299 15.1429 19 15.3192 19H16.6808C16.8571 19 17 18.83 17 18.6202C17 18.4105 16.8571 18.2405 16.6808 18.2405Z" fill="white"/>
<path d="M19.6808 18.2405H18.6383V17.3798H19C19.1763 17.3798 19.3192 17.2098 19.3192 17C19.3192 16.7903 19.1763 16.6203 19 16.6203H18.6383V15.7595H19.6808C19.8571 15.7595 20 15.5895 20 15.3798C20 15.1701 19.8571 15 19.6808 15H18.3192C18.1429 15 18 15.17 18 15.3798V18.6202C18 18.8299 18.1429 19 18.3192 19H19.6808C19.8571 19 20 18.83 20 18.6202C20 18.4105 19.8571 18.2405 19.6808 18.2405Z" fill="white"/>
</svg>