<svg width="26" height="26" viewBox="0 0 26 26" fill="none" xmlns="http://www.w3.org/2000/svg">
<path d="M9.07926 19.0361C7.79056 19.0361 6.74591 20.0808 6.74591 21.3695C6.74591 22.6582 7.79061 23.7028 9.07926 23.7028C10.368 23.7028 11.4126 22.6581 11.4126 21.3695C11.4127 20.0808 10.368 19.0361 9.07926 19.0361ZM9.07926 22.6658C8.36332 22.6658 7.78296 22.0855 7.78296 21.3695C7.78296 20.6536 8.36332 20.0732 9.07926 20.0732C9.79519 20.0732 10.3755 20.6536 10.3755 21.3695C10.3756 22.0855 9.79519 22.6658 9.07926 22.6658Z" fill="white"/>
<path d="M18.9308 19.0361C17.6421 19.0361 16.5975 20.0808 16.5975 21.3695C16.5975 22.6582 17.6422 23.7028 18.9308 23.7028C20.2195 23.7028 21.2642 22.6581 21.2642 21.3695C21.2642 20.0808 20.2195 19.0361 18.9308 19.0361ZM18.9308 22.6658C18.2149 22.6658 17.6345 22.0855 17.6345 21.3695C17.6345 20.6536 18.2149 20.0732 18.9308 20.0732C19.6468 20.0732 20.2271 20.6536 20.2271 21.3695C20.2272 22.0855 19.6468 22.6658 18.9308 22.6658Z" fill="white"/>
<path d="M24.1948 5.42436C24.0868 5.3064 23.9391 5.23256 23.78 5.21693L6.90195 4.98359L6.43528 3.55763C6.10652 2.6044 5.21387 1.96086 4.2056 1.9502H2.46854C2.18216 1.9502 1.95001 2.18234 1.95001 2.46872C1.95001 2.75511 2.18216 2.98725 2.46854 2.98725H4.2056C4.76938 2.9997 5.26583 3.36172 5.45008 3.89468L8.74272 13.8245L8.48348 14.4207C8.19432 15.1664 8.28116 16.0056 8.71682 16.6763C9.1483 17.335 9.87421 17.7416 10.6613 17.7652H20.7467C21.033 17.7652 21.2652 17.5331 21.2652 17.2467C21.2652 16.9603 21.033 16.7282 20.7467 16.7282H10.6613C10.2168 16.7171 9.80761 16.4832 9.57234 16.1059C9.3397 15.7333 9.29192 15.2741 9.44273 14.8615L9.65016 14.3948L20.5651 13.254C21.7641 13.122 22.7503 12.25 23.0281 11.0762L24.2726 5.86502C24.3287 5.71496 24.2989 5.54619 24.1948 5.42436ZM22.017 10.8429C21.8487 11.5985 21.2072 12.1558 20.4355 12.217L9.65016 13.3318L7.239 6.02065L23.1318 6.25398L22.017 10.8429Z" fill="white"/>
</svg>