<svg width="45" height="36" viewBox="0 0 45 36" fill="none" xmlns="http://www.w3.org/2000/svg">
<g clip-path="url(#clip0_5901_17239)">
<path d="M41.6386 13.3215C41.6386 13.3215 38.9993 12.5943 36.402 12.2964C36.2041 10.9442 35.0044 7.12005 31.9335 4.6575C30.2408 3.29995 29.4068 3.34734 29.4068 3.34734C30.2468 3.84635 30.5342 4.46114 30.5342 4.46114C30.7295 6.79844 29.0891 10.7093 27.8492 12.1718H24.8216C24.3547 12.0262 23.8519 11.8644 23.6066 11.7703C23.0356 11.5509 22.388 11.2868 22.251 10.1886C22.251 10.1886 21.8383 10.4019 21.971 11.2618C21.971 11.2618 20.9691 10.5001 20.9673 9.20547C20.9673 9.20547 20.529 9.57516 20.529 10.0667C20.529 10.0667 20.0561 9.48308 19.997 8.12011C19.997 8.12011 19.4443 8.31172 19.6069 9.09443C19.6069 9.09443 19.0767 8.12011 19.2313 6.88578C19.2313 6.88578 18.521 7.93188 19.305 9.28402C19.9788 10.2712 20.9825 11.2787 22.2096 12.0039L22.4927 12.1711H21.7519C18.7164 10.2137 16.9816 6.51068 18.9653 5.42531C20.7463 4.45167 22.8007 5.90333 22.979 7.14511C22.9748 7.29068 22.9383 7.43219 22.8616 7.56896C22.8616 7.56896 22.3691 8.35438 21.4397 7.69084C21.7592 8.56224 22.6418 8.39162 23.6809 8.7498C24.8094 9.32803 24.5148 10.8007 23.7344 10.7452C23.7344 10.7452 24.2445 11.3762 25.468 11.0878C25.468 11.0878 26.1735 10.5062 26.2642 10.4676L25.5885 10.5867L25.818 10.3139L25.3548 10.3538L25.3566 9.93199L24.9902 10.0247L25.0936 9.27995C25.0936 9.27995 24.5562 9.60157 24.7905 8.93803C25.0243 8.27381 24.9512 7.66646 24.5306 7.42677L25.5556 7.86011L25.3992 8.30292L25.8484 8.04969C26.2879 8.3862 26.3956 9.06126 25.9409 9.391L26.7365 8.99219C26.6683 9.19532 26.4492 9.55485 26.2605 9.61376C26.5649 9.66725 26.8132 9.53047 27.1127 9.43433C27.1127 9.43433 27.0409 9.69907 27.5935 9.69907C27.5935 9.69907 28.6728 9.41199 28.2193 8.61303C28.2193 8.61303 28.3155 8.2061 28.1195 8.06933C27.9235 7.93256 26.6635 6.79912 26.6635 6.79912L25.6396 6.46193C25.6396 6.46193 25.4649 6.21682 25.2172 5.5912C25.4516 5.90266 26.5332 6.7849 26.6635 6.79912C26.6635 6.79912 26.8175 6.38677 26.5697 6.06245C26.1881 5.56412 24.1057 3.57687 23.494 0.846191C23.494 0.846191 23.7101 3.5789 24.0187 4.52479C24.0485 4.61687 24.0759 4.70151 24.1021 4.78208C23.4836 4.09823 22.3241 3.03385 20.7981 2.61203C17.6664 1.74604 14.4738 3.83146 14.2424 7.40985C14.1037 9.55147 14.9504 11.1724 15.7033 12.1704H14.7221C13.6922 11.3011 11.3171 8.62724 11.7097 4.37448C11.7931 4.24245 12.2983 3.52541 12.9952 3.09817C12.5326 3.11916 7.17429 4.27833 5.58743 12.3343C4.02978 12.5151 2.48734 12.8448 0.977783 13.3201H41.6386V13.3215ZM35.0044 12.1833C34.8157 12.1752 34.6294 12.1711 34.4481 12.1711H34.4255C34.3056 11.7337 34.05 10.907 33.7061 10.385C33.8016 11.127 33.7907 11.7635 33.6951 12.1711H33.1552C33.6659 9.59141 32.7547 6.71922 32.7547 6.71922C34.4213 8.94683 34.9009 11.1839 35.0044 12.1833ZM31.1861 5.15719C32.328 6.81943 32.6341 10.4351 32.3213 12.1711H30.9669C31.1855 11.1372 31.1861 10.1778 31.1861 10.1778C30.9292 11.1176 30.5402 11.7642 30.2225 12.1711H29.1287C31.0461 8.73964 31.1861 5.15719 31.1861 5.15719ZM17.5057 3.49495C20.4523 2.28161 22.3691 4.09213 22.3691 4.09213C20.837 3.04333 17.0978 3.07041 15.9456 5.8126C14.7702 8.61032 16.5591 11.0898 17.5458 12.1711H16.5403C13.9752 9.37678 14.6618 4.6663 17.5057 3.49495ZM10.8265 4.95271C10.6067 8.80126 12.3902 11.1995 13.2947 12.1711H12.1479C11.4558 11.4216 10.8989 9.95433 10.8989 9.95433C10.8319 10.8372 10.9798 11.7195 11.0754 12.1711H10.2896C9.62429 7.64818 10.8265 4.95271 10.8265 4.95271ZM10.0084 5.27229C8.87559 7.69355 9.00829 10.8176 9.12759 12.1711H8.42881C8.39229 12.1711 8.35638 12.1718 8.31985 12.1725C8.23951 11.0553 8.34968 9.56568 8.34968 9.56568C7.95707 10.5156 7.71968 11.6497 7.62107 12.1853C7.34046 12.1948 7.06047 12.209 6.78047 12.2273C7.31368 8.19391 10.0084 5.27229 10.0084 5.27229Z" fill="white"/>
<path d="M13.0135 3.09934C13.0206 3.09934 13.0284 3.09863 13.0355 3.09863C13.0348 3.09863 13.027 3.09863 13.0135 3.09934Z" fill="white"/>
<path d="M12.9957 3.09983C13.0035 3.09983 13.0106 3.09912 13.0163 3.09912C13.0092 3.09912 13.0028 3.09912 12.9957 3.09983Z" fill="white"/>
<path d="M13.596 8.12117C13.7725 9.02779 13.1096 8.27149 13.1096 8.27149C13.0542 9.76378 14.2521 10.8478 14.6569 11.1701C14.1633 10.1788 13.7914 8.90659 13.89 7.38247C14.0908 4.27736 16.3966 2.02403 19.3725 2.02403C19.8783 2.02403 20.3866 2.09377 20.8839 2.23122C21.9442 2.52439 22.8366 3.11549 23.4946 3.67408C23.4678 3.42018 23.4538 3.16695 23.4471 2.93538C23.3418 3.12497 23.0965 3.13986 22.7891 2.64153C22.3027 1.85476 23.0027 1.76741 23.0027 1.76741C22.8597 1.57444 22.4719 1.39637 21.9862 1.71595C21.4999 2.03554 20.8419 1.92653 20.7299 1.62319C20.5004 0.998245 21.1018 0.846578 21.1018 0.846578C20.1467 0.340796 18.9032 1.51554 18.6585 1.07137C18.2634 0.354338 18.8703 0.11939 18.8703 0.11939C18.0011 0.057775 17.7473 0.784964 17.4782 1.37132C17.267 1.83241 16.3832 2.39439 16.049 2.19872C15.5146 1.88658 15.8944 1.22236 15.8944 1.22236C14.2807 1.53856 15.1433 3.62398 14.7014 3.94356C14.2594 4.26315 14.1091 3.07486 14.1091 3.07486C13.2953 4.0221 14.0835 5.12304 13.8175 5.61461C13.5515 6.10617 13.1084 5.40877 13.1084 5.40877C12.8223 6.47721 13.4188 7.21456 13.596 8.12117Z" fill="white"/>
<path d="M25.8393 4.6575C25.8119 4.41443 25.3158 3.52609 24.9987 2.59239C24.7126 1.75213 24.6012 0.846191 24.6012 0.846191C24.5433 2.07578 25.0078 3.55724 25.0078 3.55724L25.8393 4.6575Z" fill="white"/>
</g>
<path d="M43.0753 33.8182L43.5223 33.7705V33.321V22.4393V21.9393H43.0223H34.245H33.745V22.4393V25.831V26.331H34.245H37.4258V29.4536C35.7689 29.5315 33.9538 29.5706 31.9799 29.5706C31.6544 29.5706 31.4388 29.4842 31.286 29.3489C31.1506 29.1965 31.0642 28.9817 31.0642 28.6574V19.6128C31.0642 19.1248 31.1861 18.8506 31.3422 18.6948C31.4985 18.5388 31.7736 18.417 32.2631 18.417H41.3235H41.8235V17.917V13.96V13.46H41.3235H31.1305C29.0869 13.46 27.4855 13.9244 26.4453 14.9628C25.4221 15.9841 24.9678 17.5759 24.9678 19.6128V28.6574C24.9678 30.5706 25.4164 32.0826 26.417 33.0813C27.4173 34.0799 28.9314 34.5276 30.8474 34.5276C34.5678 34.5276 38.6441 34.2908 43.0753 33.8182Z" stroke="white"/>
<path d="M14.7108 30.5141H15.0026L15.1461 30.2601L18.2619 24.7478V34.0276V34.5276H18.7619H23.9704H24.4704V34.0276V13.96V13.46H23.9704H18.4725H18.1757L18.0336 13.7205L12.6853 23.5232L7.33704 13.7205L7.19489 13.46H6.89811H1.40027H0.900269V13.96V34.0276V34.5276H1.40027H6.60875H7.10875V34.0276V24.7478L10.2245 30.2601L10.3681 30.5141H10.6598H14.7108Z" stroke="white"/>
<path d="M26.9415 10.0273C26.9415 10.0273 27.4614 9.97359 27.7186 10.3723C27.9757 10.7711 29.1797 10.3003 29.5661 11.0585C29.9523 11.8168 30.7234 12.2102 31.6345 11.9828C32.5457 11.7555 32.2053 11.0591 31.8813 11.036C31.8813 11.036 32.4526 10.9371 32.5451 11.7555C32.6376 12.574 31.6805 13.1049 30.8624 12.9835C30.0443 12.862 29.3652 12.2252 29.1491 11.5132C28.9328 10.8012 27.9604 11.0586 27.636 10.6792C27.3114 10.2998 27.4356 10.1348 26.9415 10.0273Z" fill="#FF7144"/>
<path d="M28.5913 11.3516C28.5913 11.3516 30.393 13.9351 29.6637 14.7694C28.9346 15.6037 27.811 14.591 28.1032 14.1284C28.1032 14.1284 26.9826 15.453 28.6325 15.453C29.3338 16.6593 30.5622 15.0519 30.4848 14.017C30.4076 12.9821 28.5913 11.3516 28.5913 11.3516Z" fill="#FF7144"/>
<path d="M30.7664 13.563C30.7664 13.563 32.3016 14.2466 31.8884 15.0182C32.0953 16.0563 31.355 15.6541 30.4042 15.9816C30.4025 15.9816 31.9091 15.1313 30.7664 13.563Z" fill="#FF7144"/>
<defs>
<clipPath id="clip0_5901_17239">
<rect width="40.6608" height="13.4049" fill="white" transform="translate(0.977783)"/>
</clipPath>
</defs>
</svg>
