<svg width="30" height="30" viewBox="0 0 30 30" fill="none" xmlns="http://www.w3.org/2000/svg">
<rect width="30" height="30" rx="15" fill="white"/>
<g clip-path="url(#clip0_5901_17288)">
<path d="M22.0698 7.92787C18.1639 4.02322 11.8323 4.02416 7.92762 7.93001C4.02297 11.8359 4.02391 18.1675 7.92977 22.0722C11.8356 25.9768 18.1673 25.9759 22.0719 22.07C23.9472 20.1942 25.0004 17.6502 24.9998 14.9979C24.9992 12.3459 23.9453 9.80279 22.0698 7.92787ZM20.1444 18.9299C20.144 18.9303 20.1436 18.9308 20.1431 18.9312V18.9279L19.6364 19.4312C18.9811 20.0948 18.0268 20.3678 17.1197 20.1512C16.2059 19.9066 15.3371 19.5172 14.5464 18.9979C13.8118 18.5284 13.131 17.9796 12.5164 17.3612C11.9509 16.7999 11.4429 16.1835 10.9997 15.5212C10.515 14.8086 10.1314 14.0324 9.85973 13.2145C9.54829 12.2538 9.80637 11.1995 10.5264 10.4912L11.1197 9.89791C11.2847 9.7322 11.5527 9.73162 11.7184 9.89658C11.7188 9.89701 11.7193 9.89744 11.7197 9.89791L13.5931 11.7712C13.7588 11.9362 13.7593 12.2042 13.5944 12.3699C13.5939 12.3703 13.5935 12.3708 13.5931 12.3712L12.4931 13.4712C12.1774 13.7834 12.1377 14.2795 12.3997 14.6379C12.7976 15.1839 13.2379 15.6977 13.7164 16.1746C14.25 16.7104 14.83 17.1979 15.4497 17.6313C15.8078 17.881 16.2933 17.8389 16.6031 17.5313L17.6664 16.4513C17.8313 16.2856 18.0994 16.285 18.265 16.4499C18.2655 16.4504 18.2659 16.4508 18.2664 16.4513L20.1431 18.3313C20.3088 18.4962 20.3094 18.7642 20.1444 18.9299Z" fill="#FF7144"/>
</g>
<defs>
<clipPath id="clip0_5901_17288">
<rect width="20" height="20" fill="white" transform="translate(5 5)"/>
</clipPath>
</defs>
</svg>
